<mxfile host="app.diagrams.net" modified="2024-04-07T11:04:12.853Z" agent="Mozilla/5.0 (Windows NT 10.0; Win64; x64) AppleWebKit/537.36 (KHTML, like Gecko) Chrome/121.0.0.0 Safari/537.36 OPR/107.0.0.0" etag="MYxZbIeI_YYcp79rcBSE" version="24.0.2" type="device">
  <diagram name="Страница — 1" id="Mr-a5qJRFT9egZu9b4EL">
    <mxGraphModel dx="687" dy="396" grid="1" gridSize="10" guides="1" tooltips="1" connect="1" arrows="1" fold="1" page="1" pageScale="1" pageWidth="1169" pageHeight="827" math="0" shadow="0">
      <root>
        <mxCell id="0" />
        <mxCell id="1" parent="0" />
        <mxCell id="cYeco5_5NZNaWGogSFUn-1" value="" style="ellipse;whiteSpace=wrap;html=1;aspect=fixed;" vertex="1" parent="1">
          <mxGeometry x="480" y="240" width="80" height="80" as="geometry" />
        </mxCell>
        <mxCell id="cYeco5_5NZNaWGogSFUn-2" value="" style="endArrow=classic;html=1;rounded=0;entryX=0;entryY=0.5;entryDx=0;entryDy=0;exitX=1;exitY=0.5;exitDx=0;exitDy=0;" edge="1" parent="1" source="cYeco5_5NZNaWGogSFUn-5" target="cYeco5_5NZNaWGogSFUn-1">
          <mxGeometry width="50" height="50" relative="1" as="geometry">
            <mxPoint x="360" y="280" as="sourcePoint" />
            <mxPoint x="530" y="270" as="targetPoint" />
          </mxGeometry>
        </mxCell>
        <mxCell id="cYeco5_5NZNaWGogSFUn-3" value="" style="endArrow=classic;html=1;rounded=0;entryX=0;entryY=0;entryDx=0;entryDy=0;exitX=1;exitY=0.5;exitDx=0;exitDy=0;" edge="1" parent="1" source="cYeco5_5NZNaWGogSFUn-4" target="cYeco5_5NZNaWGogSFUn-1">
          <mxGeometry width="50" height="50" relative="1" as="geometry">
            <mxPoint x="360" y="200" as="sourcePoint" />
            <mxPoint x="530" y="270" as="targetPoint" />
          </mxGeometry>
        </mxCell>
        <mxCell id="cYeco5_5NZNaWGogSFUn-4" value="&lt;font style=&quot;font-size: 20px;&quot;&gt;X&lt;sub&gt;1&lt;/sub&gt;&lt;/font&gt;" style="text;html=1;align=center;verticalAlign=middle;whiteSpace=wrap;rounded=0;fontFamily=Times New Roman;" vertex="1" parent="1">
          <mxGeometry x="299" y="184" width="60" height="30" as="geometry" />
        </mxCell>
        <mxCell id="cYeco5_5NZNaWGogSFUn-5" value="&lt;font style=&quot;font-size: 20px;&quot;&gt;X&lt;/font&gt;&lt;font style=&quot;font-size: 16.6667px;&quot;&gt;&lt;sub&gt;2&lt;/sub&gt;&lt;/font&gt;" style="text;html=1;align=center;verticalAlign=middle;whiteSpace=wrap;rounded=0;fontFamily=Times New Roman;" vertex="1" parent="1">
          <mxGeometry x="299" y="265" width="60" height="30" as="geometry" />
        </mxCell>
        <mxCell id="cYeco5_5NZNaWGogSFUn-6" value="" style="endArrow=classic;html=1;rounded=0;entryX=0;entryY=1;entryDx=0;entryDy=0;exitX=1;exitY=0.5;exitDx=0;exitDy=0;" edge="1" parent="1" source="cYeco5_5NZNaWGogSFUn-8" target="cYeco5_5NZNaWGogSFUn-1">
          <mxGeometry width="50" height="50" relative="1" as="geometry">
            <mxPoint x="360" y="360" as="sourcePoint" />
            <mxPoint x="440" y="280" as="targetPoint" />
          </mxGeometry>
        </mxCell>
        <mxCell id="cYeco5_5NZNaWGogSFUn-7" value="&lt;span style=&quot;font-size: 20px;&quot;&gt;...&lt;/span&gt;" style="text;html=1;align=center;verticalAlign=middle;whiteSpace=wrap;rounded=0;fontFamily=Times New Roman;" vertex="1" parent="1">
          <mxGeometry x="296" y="300" width="60" height="30" as="geometry" />
        </mxCell>
        <mxCell id="cYeco5_5NZNaWGogSFUn-8" value="&lt;span style=&quot;font-size: 20px;&quot;&gt;X&lt;sub&gt;n&lt;/sub&gt;&lt;/span&gt;" style="text;html=1;align=center;verticalAlign=middle;whiteSpace=wrap;rounded=0;fontFamily=Times New Roman;" vertex="1" parent="1">
          <mxGeometry x="299" y="346" width="60" height="30" as="geometry" />
        </mxCell>
        <mxCell id="cYeco5_5NZNaWGogSFUn-9" value="" style="endArrow=classic;html=1;rounded=0;exitX=1;exitY=0;exitDx=0;exitDy=0;entryX=0;entryY=0.5;entryDx=0;entryDy=0;" edge="1" parent="1" source="cYeco5_5NZNaWGogSFUn-1" target="cYeco5_5NZNaWGogSFUn-12">
          <mxGeometry width="50" height="50" relative="1" as="geometry">
            <mxPoint x="620" y="270" as="sourcePoint" />
            <mxPoint x="680" y="200" as="targetPoint" />
          </mxGeometry>
        </mxCell>
        <mxCell id="cYeco5_5NZNaWGogSFUn-10" value="" style="endArrow=classic;html=1;rounded=0;exitX=1;exitY=0.5;exitDx=0;exitDy=0;entryX=0;entryY=0.5;entryDx=0;entryDy=0;" edge="1" parent="1" source="cYeco5_5NZNaWGogSFUn-1" target="cYeco5_5NZNaWGogSFUn-13">
          <mxGeometry width="50" height="50" relative="1" as="geometry">
            <mxPoint x="580" y="330" as="sourcePoint" />
            <mxPoint x="680" y="280" as="targetPoint" />
          </mxGeometry>
        </mxCell>
        <mxCell id="cYeco5_5NZNaWGogSFUn-11" value="" style="endArrow=classic;html=1;rounded=0;exitX=1;exitY=1;exitDx=0;exitDy=0;entryX=0;entryY=0.5;entryDx=0;entryDy=0;" edge="1" parent="1" source="cYeco5_5NZNaWGogSFUn-1" target="cYeco5_5NZNaWGogSFUn-15">
          <mxGeometry width="50" height="50" relative="1" as="geometry">
            <mxPoint x="580" y="330" as="sourcePoint" />
            <mxPoint x="680" y="360" as="targetPoint" />
          </mxGeometry>
        </mxCell>
        <mxCell id="cYeco5_5NZNaWGogSFUn-12" value="&lt;span style=&quot;font-size: 20px;&quot;&gt;Y&lt;sub&gt;1&lt;/sub&gt;&lt;/span&gt;" style="text;html=1;align=center;verticalAlign=middle;whiteSpace=wrap;rounded=0;fontFamily=Times New Roman;" vertex="1" parent="1">
          <mxGeometry x="680" y="184" width="60" height="30" as="geometry" />
        </mxCell>
        <mxCell id="cYeco5_5NZNaWGogSFUn-13" value="&lt;span style=&quot;font-size: 20px;&quot;&gt;Y&lt;sub&gt;2&lt;/sub&gt;&lt;/span&gt;" style="text;html=1;align=center;verticalAlign=middle;whiteSpace=wrap;rounded=0;fontFamily=Times New Roman;" vertex="1" parent="1">
          <mxGeometry x="680" y="265" width="60" height="30" as="geometry" />
        </mxCell>
        <mxCell id="cYeco5_5NZNaWGogSFUn-14" value="&lt;span style=&quot;font-size: 20px;&quot;&gt;...&lt;/span&gt;" style="text;html=1;align=center;verticalAlign=middle;whiteSpace=wrap;rounded=0;fontFamily=Times New Roman;" vertex="1" parent="1">
          <mxGeometry x="678" y="300" width="60" height="30" as="geometry" />
        </mxCell>
        <mxCell id="cYeco5_5NZNaWGogSFUn-15" value="&lt;span style=&quot;font-size: 20px;&quot;&gt;Y&lt;sub&gt;m&lt;/sub&gt;&lt;/span&gt;" style="text;html=1;align=center;verticalAlign=middle;whiteSpace=wrap;rounded=0;fontFamily=Times New Roman;" vertex="1" parent="1">
          <mxGeometry x="680" y="344" width="60" height="30" as="geometry" />
        </mxCell>
        <mxCell id="cYeco5_5NZNaWGogSFUn-16" value="&lt;font face=&quot;Times New Roman&quot; style=&quot;font-size: 13px;&quot;&gt;Нейронная&lt;/font&gt;&lt;div&gt;&lt;font face=&quot;Times New Roman&quot; style=&quot;font-size: 13px;&quot;&gt;сеть&lt;/font&gt;&lt;/div&gt;" style="text;html=1;align=center;verticalAlign=middle;whiteSpace=wrap;rounded=0;" vertex="1" parent="1">
          <mxGeometry x="490" y="265" width="60" height="30" as="geometry" />
        </mxCell>
      </root>
    </mxGraphModel>
  </diagram>
</mxfile>
